<?xml version="1.0" encoding="utf-8"?><svg xmlns="http://www.w3.org/2000/svg" xmlns:xlink="http://www.w3.org/1999/xlink"><symbol viewBox="0 0 58.667 52" id="Logo" xmlns="http://www.w3.org/2000/svg"><g style="line-height:1.25" aria-label="A" font-weight="400" font-size="17.926" font-family="sans-serif" letter-spacing="0" word-spacing="0" stroke-width=".448"><path style="line-height:normal;font-variant-ligatures:normal;font-variant-position:normal;font-variant-caps:normal;font-variant-numeric:normal;font-variant-alternates:normal;font-feature-settings:normal;text-indent:0;text-align:start;text-decoration-line:none;text-decoration-style:solid;text-decoration-color:#000;text-transform:none;text-orientation:mixed;white-space:normal;shape-padding:0;isolation:auto;mix-blend-mode:normal;solid-color:#000;solid-opacity:1" d="M2.26 2.868V49.26h46.39V32.804h-1v15.455H3.26V3.869h44.39v14.835h1V2.868z" color="#000" font-size="medium" letter-spacing="normal" word-spacing="normal" overflow="visible" fill="#959595" fill-opacity=".949"/><path style="line-height:normal;font-variant-ligatures:normal;font-variant-position:normal;font-variant-caps:normal;font-variant-numeric:normal;font-variant-alternates:normal;font-feature-settings:normal;text-indent:0;text-align:start;text-decoration-line:none;text-decoration-style:solid;text-decoration-color:#000;text-transform:none;text-orientation:mixed;white-space:normal;shape-padding:0;isolation:auto;mix-blend-mode:normal;solid-color:#000;solid-opacity:1" d="M12.432 26.352l.72.701 21.787 21.233 21.934-22.507L34.366 3.845zm2.842-.037L34.403 6.687 54.03 25.816 34.902 45.444z" color="#000" font-size="medium" letter-spacing="normal" word-spacing="normal" overflow="visible"/><path d="M34.375 20.182l-2.399 6.504h4.806zm-.998-1.742h2.004l4.98 13.068h-1.837l-1.19-3.352h-5.891l-1.19 3.352h-1.865z"/></g></symbol><symbol viewBox="0 0 19.71 36.726" id="arrow-left" xmlns="http://www.w3.org/2000/svg"><path d="M18.672 0a1 1 0 00-.686.305L0 18.43l17.988 17.99a1 1 0 101.414-1.415l-16.58-16.58 16.584-16.71A1 1 0 0018.672 0z"/></symbol><symbol viewBox="0 0 19.71 36.726" id="arrow-right" xmlns="http://www.w3.org/2000/svg"><path class="carr" d="M1.038 0a1 1 0 01.685.305L19.71 18.43 1.722 36.42a1 1 0 11-1.415-1.415l16.58-16.58L.305 1.714A1 1 0 011.038 0z" fill="currentcolor"/></symbol><symbol viewBox="0 0 50.667 41.333" id="qoute" xmlns="http://www.w3.org/2000/svg"><path d="M17.41 1.592c-.288-.03-.558.012-.771.16C-4.524 16.069 3.049 33.05 4.398 35.388c1.698 3.045 5.25 4.89 8.736 4.896a9.633 9.633 0 009.633-9.633 9.633 9.633 0 00-15.646-7.524c-.323-1.283-2.401-11.4 10.219-19.186 1.352-.853.936-2.257.07-2.349zm25.522-.065c-.288-.03-.558.012-.771.16C20.998 16.004 28.57 32.985 29.92 35.323c1.698 3.045 5.25 4.89 8.736 4.896a9.633 9.633 0 009.633-9.633 9.633 9.633 0 00-15.646-7.523c-.323-1.284-2.401-11.401 10.219-19.186 1.352-.854.936-2.258.07-2.35z" fill="#e9e9e9" opacity=".542"/></symbol></svg>